<?xml version="1.0" encoding="utf-8"?>
<!-- Generator: Adobe Illustrator 25.4.1, SVG Export Plug-In . SVG Version: 6.00 Build 0)  -->
<svg version="1.1" id="Layer_1" xmlns="http://www.w3.org/2000/svg" xmlns:xlink="http://www.w3.org/1999/xlink" x="0px" y="0px"
	 viewBox="0 0 561.3 521.4" style="enable-background:new 0 0 561.3 521.4;" xml:space="preserve">
<g>
	<path d="M498.4,188.9l-208.2-148l-208.2,148L66.4,419l223.7,34.9L513.8,419L498.4,188.9z M217.4,368.8c-25.7,0-43.9-7.9-55.5-17.6
		l12.2-23.6c9.2,7,26.5,14.4,42.8,14.4c25.5,0,38.4-15.7,38.4-32.2c0-21.4-18.4-32.5-41.4-32.5c-14.1,0-25.5,5.1-33.6,10l-12.2-10.6
		v-86.1h109.9v27.1h-79.9v38.2c7.3-2.4,15.4-4.1,24.4-4.1c36.6,0,64.7,20.6,64.7,56.9C287.3,343.6,260.5,368.8,217.4,368.8
		 M350.1,368.8c-25.7,0-43.9-7.9-55.5-17.6l12.2-23.6c9.2,7,26.5,14.4,42.8,14.4c25.5,0,38.4-15.7,38.4-32.2
		c0-21.4-18.4-32.5-41.4-32.5c-14.1,0-25.5,5.1-33.6,10l-12.2-10.6v-86.1h109.9v27.1h-79.9v38.2c7.3-2.4,15.4-4.1,24.4-4.1
		c36.6,0,64.7,20.6,64.7,56.9C420,343.6,393.2,368.8,350.1,368.8"/>
</g>
</svg>
