<svg id="visual" viewBox="0 0 960 200" width="960" height="200" xmlns="http://www.w3.org/2000/svg" xmlns:xlink="http://www.w3.org/1999/xlink" version="1.1"><rect x="0" y="0" width="960" height="200" fill="#ffffff"></rect><path d="M0 26L13.3 30.2C26.7 34.3 53.3 42.7 80 42.2C106.7 41.7 133.3 32.3 160 30.3C186.7 28.3 213.3 33.7 240 37.5C266.7 41.3 293.3 43.7 320 50.7C346.7 57.7 373.3 69.3 400 68.2C426.7 67 453.3 53 480 50.3C506.7 47.7 533.3 56.3 560 64.7C586.7 73 613.3 81 640 82.2C666.7 83.3 693.3 77.7 720 71.5C746.7 65.3 773.3 58.7 800 57C826.7 55.3 853.3 58.7 880 59.5C906.7 60.3 933.3 58.7 946.7 57.8L960 57L960 201L946.7 201C933.3 201 906.7 201 880 201C853.3 201 826.7 201 800 201C773.3 201 746.7 201 720 201C693.3 201 666.7 201 640 201C613.3 201 586.7 201 560 201C533.3 201 506.7 201 480 201C453.3 201 426.7 201 400 201C373.3 201 346.7 201 320 201C293.3 201 266.7 201 240 201C213.3 201 186.7 201 160 201C133.3 201 106.7 201 80 201C53.3 201 26.7 201 13.3 201L0 201Z" fill="#66d1cf"></path><path d="M0 86L13.3 89.8C26.7 93.7 53.3 101.3 80 98.7C106.7 96 133.3 83 160 73.7C186.7 64.3 213.3 58.7 240 63.2C266.7 67.7 293.3 82.3 320 85.3C346.7 88.3 373.3 79.7 400 73.2C426.7 66.7 453.3 62.3 480 67C506.7 71.7 533.3 85.3 560 93.3C586.7 101.3 613.3 103.7 640 100C666.7 96.3 693.3 86.7 720 84.8C746.7 83 773.3 89 800 93.3C826.7 97.7 853.3 100.3 880 96.8C906.7 93.3 933.3 83.7 946.7 78.8L960 74L960 201L946.7 201C933.3 201 906.7 201 880 201C853.3 201 826.7 201 800 201C773.3 201 746.7 201 720 201C693.3 201 666.7 201 640 201C613.3 201 586.7 201 560 201C533.3 201 506.7 201 480 201C453.3 201 426.7 201 400 201C373.3 201 346.7 201 320 201C293.3 201 266.7 201 240 201C213.3 201 186.7 201 160 201C133.3 201 106.7 201 80 201C53.3 201 26.7 201 13.3 201L0 201Z" fill="#4fc9c7"></path><path d="M0 78L13.3 81C26.7 84 53.3 90 80 95C106.7 100 133.3 104 160 107.7C186.7 111.3 213.3 114.7 240 111.5C266.7 108.3 293.3 98.7 320 92C346.7 85.3 373.3 81.7 400 80.2C426.7 78.7 453.3 79.3 480 83.2C506.7 87 533.3 94 560 94.5C586.7 95 613.3 89 640 85.2C666.7 81.3 693.3 79.7 720 80.2C746.7 80.7 773.3 83.3 800 91.2C826.7 99 853.3 112 880 116.8C906.7 121.7 933.3 118.3 946.7 116.7L960 115L960 201L946.7 201C933.3 201 906.7 201 880 201C853.3 201 826.7 201 800 201C773.3 201 746.7 201 720 201C693.3 201 666.7 201 640 201C613.3 201 586.7 201 560 201C533.3 201 506.7 201 480 201C453.3 201 426.7 201 400 201C373.3 201 346.7 201 320 201C293.3 201 266.7 201 240 201C213.3 201 186.7 201 160 201C133.3 201 106.7 201 80 201C53.3 201 26.7 201 13.3 201L0 201Z" fill="#30c2bf"></path><path d="M0 144L13.3 143.5C26.7 143 53.3 142 80 141.3C106.7 140.7 133.3 140.3 160 137C186.7 133.7 213.3 127.3 240 126.3C266.7 125.3 293.3 129.7 320 128.3C346.7 127 373.3 120 400 119.5C426.7 119 453.3 125 480 130.8C506.7 136.7 533.3 142.3 560 144.5C586.7 146.7 613.3 145.3 640 145C666.7 144.7 693.3 145.3 720 142.2C746.7 139 773.3 132 800 125.8C826.7 119.7 853.3 114.3 880 118C906.7 121.7 933.3 134.3 946.7 140.7L960 147L960 201L946.7 201C933.3 201 906.7 201 880 201C853.3 201 826.7 201 800 201C773.3 201 746.7 201 720 201C693.3 201 666.7 201 640 201C613.3 201 586.7 201 560 201C533.3 201 506.7 201 480 201C453.3 201 426.7 201 400 201C373.3 201 346.7 201 320 201C293.3 201 266.7 201 240 201C213.3 201 186.7 201 160 201C133.3 201 106.7 201 80 201C53.3 201 26.7 201 13.3 201L0 201Z" fill="#16b4b1"></path><path d="M0 138L13.3 138.2C26.7 138.3 53.3 138.7 80 140.7C106.7 142.7 133.3 146.3 160 148.3C186.7 150.3 213.3 150.7 240 152.2C266.7 153.7 293.3 156.3 320 159.2C346.7 162 373.3 165 400 164.8C426.7 164.7 453.3 161.3 480 159.2C506.7 157 533.3 156 560 152C586.7 148 613.3 141 640 140.7C666.7 140.3 693.3 146.7 720 150C746.7 153.3 773.3 153.7 800 153.8C826.7 154 853.3 154 880 149.5C906.7 145 933.3 136 946.7 131.5L960 127L960 201L946.7 201C933.3 201 906.7 201 880 201C853.3 201 826.7 201 800 201C773.3 201 746.7 201 720 201C693.3 201 666.7 201 640 201C613.3 201 586.7 201 560 201C533.3 201 506.7 201 480 201C453.3 201 426.7 201 400 201C373.3 201 346.7 201 320 201C293.3 201 266.7 201 240 201C213.3 201 186.7 201 160 201C133.3 201 106.7 201 80 201C53.3 201 26.7 201 13.3 201L0 201Z" fill="#149f9d"></path><path d="M0 181L13.3 178.3C26.7 175.7 53.3 170.3 80 169.7C106.7 169 133.3 173 160 174.5C186.7 176 213.3 175 240 174.2C266.7 173.3 293.3 172.7 320 172.7C346.7 172.7 373.3 173.3 400 170.3C426.7 167.3 453.3 160.7 480 158.7C506.7 156.7 533.3 159.3 560 163.8C586.7 168.3 613.3 174.7 640 178.5C666.7 182.3 693.3 183.7 720 181.8C746.7 180 773.3 175 800 175C826.7 175 853.3 180 880 180.7C906.7 181.3 933.3 177.7 946.7 175.8L960 174L960 201L946.7 201C933.3 201 906.7 201 880 201C853.3 201 826.7 201 800 201C773.3 201 746.7 201 720 201C693.3 201 666.7 201 640 201C613.3 201 586.7 201 560 201C533.3 201 506.7 201 480 201C453.3 201 426.7 201 400 201C373.3 201 346.7 201 320 201C293.3 201 266.7 201 240 201C213.3 201 186.7 201 160 201C133.3 201 106.7 201 80 201C53.3 201 26.7 201 13.3 201L0 201Z" fill="#128b89"></path></svg>